# T-72 (Object 172M) — visual hull from the three-view plate
# Built by tools/build_model_from_plate.py from the orthographic
# views on the source plate, by intersecting their silhouettes.
# Metres; +x forward, +y up, +z right; origin on the running surface.
# 1315 vertices, 918 faces, grid 238x74x92
# cell 3.91 cm; length 9.32 m from the top view; height over everything reads 2.38 m from the side view and 2.91 m from the front view
# length: 9.31 m built, 9.53 m recorded (-0.22 m)
# height: 2.39 m built, 2.19 m recorded (+0.20 m)
# width: 3.60 m built, 3.59 m recorded (+0.01 m)
v -4.6537 1.1341 -0.7821
v -4.6537 1.3296 -0.7821
v -4.6537 1.3296 -0.6648
v -4.6537 1.1341 -0.6648
v -4.6537 1.1341 -0.3911
v -4.6537 1.3296 -0.3911
v -4.6537 1.3296 -0.0782
v -4.6537 1.1341 -0.0782
v -4.6146 1.0559 -0.8604
v -4.6146 1.1341 -0.8604
v -4.6146 1.1341 -0.0782
v -4.6146 1.0559 -0.0782
v -4.6146 1.0559 0.0391
v -4.6146 1.4079 0.0391
v -4.6146 1.4079 0.8604
v -4.6146 1.0559 0.8604
v -4.6146 1.4079 -0.8604
v -4.6146 1.4079 -0.7821
v -4.6146 1.1341 -0.7821
v -4.6146 1.1341 -0.6648
v -4.6146 1.4079 -0.6648
v -4.6146 1.4079 -0.3911
v -4.6146 1.1341 -0.3911
v -4.6146 1.3296 -0.7821
v -4.6146 1.3296 -0.6648
v -4.6146 1.3296 -0.3911
v -4.6146 1.4079 -0.0782
v -4.6146 1.3296 -0.0782
v -4.5755 1.0168 -0.8604
v -4.5755 1.0559 -0.8604
v -4.5755 1.0559 -0.0782
v -4.5755 1.0168 -0.0782
v -4.5755 1.0168 0.0391
v -4.5755 1.0559 0.0391
v -4.5755 1.0559 0.8604
v -4.5755 1.0168 0.8604
v -4.5364 0.9386 -0.8604
v -4.5364 1.0168 -0.8604
v -4.5364 1.0168 -0.0782
v -4.5364 0.9386 -0.0782
v -4.5364 0.9386 0.0391
v -4.5364 1.0168 0.0391
v -4.5364 1.0168 0.8604
v -4.5364 0.9386 0.8604
v -4.5364 1.4079 -0.8604
v -4.5364 1.4470 -0.8604
v -4.5364 1.4470 -0.0782
v -4.5364 1.4079 -0.0782
v -4.5364 1.4079 0.0391
v -4.5364 1.4470 0.0391
v -4.5364 1.4470 0.8604
v -4.5364 1.4079 0.8604
v -4.4973 0.9386 1.1732
v -4.4973 1.4470 1.1732
v -4.4973 1.4470 1.2123
v -4.4973 0.9386 1.2123
v -4.4582 0.9386 1.0559
v -4.4582 1.4861 1.0559
v -4.4582 1.4861 1.1732
v -4.4582 0.9386 1.1732
v -4.4582 1.4470 -0.8604
v -4.4582 1.4861 -0.8604
v -4.4582 1.4861 -0.0782
v -4.4582 1.4470 -0.0782
v -4.4582 1.4470 0.0391
v -4.4582 1.4861 0.0391
v -4.4582 1.4861 0.8604
v -4.4582 1.4470 0.8604
v -4.4582 1.4470 1.1732
v -4.4582 1.4861 1.2123
v -4.4582 1.4470 1.2123
v -4.4191 0.9386 1.0168
v -4.4191 1.4861 1.0168
v -4.4191 1.4861 1.0559
v -4.4191 0.9386 1.0559
v -4.4191 0.9386 1.2123
v -4.4191 1.4861 1.2123
v -4.4191 1.4861 1.2514
v -4.4191 0.9386 1.2514
v -4.3800 0.8604 -0.8604
v -4.3800 0.9386 -0.8604
v -4.3800 0.9386 -0.0782
v -4.3800 0.8604 -0.0782
v -4.3800 0.8604 0.0391
v -4.3800 0.9386 0.0391
v -4.3800 0.9386 0.8604
v -4.3800 0.8604 0.8604
v -4.3800 0.8604 0.9777
v -4.3800 0.9386 0.9777
v -4.3800 0.9386 1.5252
v -4.3800 0.8604 1.5252
v -4.3800 1.4470 0.9777
v -4.3800 1.4470 1.0168
v -4.3800 0.9386 1.0168
v -4.3800 0.9386 1.2514
v -4.3800 1.3687 1.2514
v -4.3800 1.3687 1.5252
v -4.3800 1.4470 1.2514
v -4.3800 1.4470 1.4470
v -4.3800 1.3687 1.4470
v -4.3409 0.8212 -0.8604
v -4.3409 0.8604 -0.8604
v -4.3409 0.8604 -0.0782
v -4.3409 0.8212 -0.0782
v -4.3409 0.8212 0.0391
v -4.3409 0.8604 0.0391
v -4.3409 0.8604 0.8604
v -4.3409 0.8212 0.8604
v -4.3409 0.8212 0.9777
v -4.3409 0.8604 0.9777
v -4.3409 0.8604 1.5252
v -4.3409 0.8212 1.5252
v -4.2627 0.7430 -0.8604
v -4.2627 0.8212 -0.8604
v -4.2627 0.8212 -0.0782
v -4.2627 0.7430 -0.0782
v -4.2627 0.7430 0.0782
v -4.2627 0.8212 0.0782
v -4.2627 0.8212 0.8604
v -4.2627 0.7430 0.8604
v -4.2627 0.7430 0.9777
v -4.2627 0.8212 0.9777
v -4.2627 0.8212 1.5252
v -4.2627 0.7430 1.5252
v -4.2236 0.0000 -1.5252
v -4.2236 0.7430 -1.5252
v -4.2236 0.7430 -1.1341
v -4.2236 0.0000 -1.1341
v -4.2236 0.7430 -1.0168
v -4.2236 0.0000 -1.0168
v -4.2236 0.0000 1.0559
v -4.2236 0.7430 1.0559
v -4.2236 0.7430 1.1341
v -4.2236 0.0000 1.1341
v -4.2236 0.7430 1.4470
v -4.2236 0.0000 1.4470
v -4.2236 0.0391 -1.0168
v -4.2236 0.7430 -0.9777
v -4.2236 0.0391 -0.9777
v -4.2236 0.0391 0.9777
v -4.2236 0.7430 0.9777
v -4.2236 0.0391 1.0559
v -4.2236 0.0391 1.4470
v -4.2236 0.7430 1.5252
v -4.2236 0.0391 1.5252
v -4.2236 0.3520 -0.9777
v -4.2236 0.7430 -0.7430
v -4.2236 0.3520 -0.7430
v -4.2236 0.3520 -0.0782
v -4.2236 0.7430 -0.0782
v -4.2236 0.7430 0.0782
v -4.2236 0.3520 0.0782
v -4.2236 0.3520 0.7430
v -4.2236 0.7430 0.7430
v -4.2236 0.3520 0.9777
v -4.2236 0.3911 -1.6816
v -4.2236 0.7430 -1.6816
v -4.2236 0.3911 -1.5252
v -4.2236 0.3911 -0.7430
v -4.2236 0.7430 -0.6648
v -4.2236 0.3911 -0.6648
v -4.2236 0.3911 -0.4302
v -4.2236 0.7430 -0.4302
v -4.2236 0.3911 -0.0782
v -4.2236 0.3911 0.0782
v -4.2236 0.7430 0.3911
v -4.2236 0.3911 0.3911
v -4.2236 0.3911 0.6648
v -4.2236 0.7430 0.6648
v -4.2236 0.3911 0.7430
v -4.2236 0.3911 1.5252
v -4.2236 0.7430 1.6816
v -4.2236 0.3911 1.6816
v -4.2236 0.4302 -0.6648
v -4.2236 0.4302 -0.4302
v -4.2236 0.4302 0.3911
v -4.2236 0.4302 0.6648
v -4.2236 0.5084 -1.7207
v -4.2236 0.7430 -1.7207
v -4.2236 0.5084 -1.6816
v -4.2236 0.5475 1.6816
v -4.2236 0.7430 1.7207
v -4.2236 0.5475 1.7207
v -4.1454 0.7430 -1.2514
v -4.1454 1.2514 -1.2514
v -4.1454 1.2514 -0.9777
v -4.1454 0.7430 -0.9777
v -4.1062 0.7430 -1.5252
v -4.1062 1.2514 -1.5252
v -4.1062 1.2514 -1.2514
v -4.1062 0.7430 -1.2514
v -4.0671 0.7430 -1.6034
v -4.0671 1.2514 -1.6034
v -4.0671 1.2514 -1.5252
v -4.0671 0.7430 -1.5252
v -4.0671 0.7430 -0.0782
v -4.0671 1.2514 -0.0782
v -4.0671 1.2514 -0.0391
v -4.0671 0.7430 -0.0391
v -4.0671 0.7430 1.5252
v -4.0671 1.2514 1.5252
v -4.0671 1.2514 1.5643
v -4.0671 0.7430 1.5643
v -4.0280 0.7430 -1.6425
v -4.0280 1.2123 -1.6425
v -4.0280 1.2123 -1.6034
v -4.0280 0.7430 -1.6034
v -4.0280 0.7430 -0.0391
v -4.0280 1.2123 -0.0391
v -4.0280 1.2123 0.0782
v -4.0280 0.7430 0.0782
v -4.0280 0.7430 0.8604
v -4.0280 1.2123 0.8604
v -4.0280 1.2123 0.9777
v -4.0280 0.7430 0.9777
v -3.9889 0.7430 -1.7207
v -3.9889 1.2123 -1.7207
v -3.9889 1.2123 -1.6425
v -3.9889 0.7430 -1.6425
v -3.9889 0.7430 -0.9777
v -3.9889 1.2123 -0.9777
v -3.9889 1.2123 -0.8604
v -3.9889 0.7430 -0.8604
v -3.9498 0.7430 -1.7598
v -3.9498 1.2514 -1.7598
v -3.9498 1.2514 -1.7207
v -3.9498 0.7430 -1.7207
v -3.9498 1.2123 -1.7207
v -3.9498 1.2514 1.5252
v -3.9498 1.2123 1.5252
v -3.8716 0.7430 1.7207
v -3.8716 1.2514 1.7207
v -3.8716 1.2514 1.7989
v -3.8716 0.7430 1.7989
v -3.7934 0.7430 1.5252
v -3.7934 1.2514 1.5252
v -3.7934 1.2514 1.7207
v -3.7934 0.7430 1.7207
v -3.5979 1.2514 -1.7598
v -3.5979 1.2905 -1.7598
v -3.5979 1.2905 1.7989
v -3.5979 1.2514 1.7989
v -3.3241 0.7430 -1.7989
v -3.3241 1.2514 -1.7989
v -3.3241 1.2514 -1.7598
v -3.3241 0.7430 -1.7598
v -2.8157 1.6034 -1.6425
v -2.8157 1.6425 -1.6425
v -2.8157 1.6425 1.6425
v -2.8157 1.6034 1.6425
v -2.8157 1.6425 -1.6034
v -2.8157 1.6816 -1.6034
v -2.8157 1.6816 1.6034
v -2.8157 1.6425 1.6034
v -2.8157 1.6816 -1.5643
v -2.8157 1.7207 -1.5643
v -2.8157 1.7207 1.5643
v -2.8157 1.6816 1.5643
v -2.8157 1.7207 -1.4861
v -2.8157 1.7598 -1.4861
v -2.8157 1.7598 1.4861
v -2.8157 1.7207 1.4861
v -2.7766 1.5643 -1.6425
v -2.7766 1.6034 -1.6425
v -2.7766 1.6034 1.6425
v -2.7766 1.5643 1.6425
v -2.7375 1.7598 -1.4470
v -2.7375 1.7989 -1.4470
v -2.7375 1.7989 1.4470
v -2.7375 1.7598 1.4470
v -2.7375 2.1509 -0.7039
v -2.7375 2.2291 -0.7039
v -2.7375 2.2291 -0.1564
v -2.7375 2.1509 -0.1564
v -2.7375 2.1509 0.2737
v -2.7375 2.2291 0.2737
v -2.7375 2.2291 0.7821
v -2.7375 2.1509 0.7821
v -2.7375 2.1509 0.8604
v -2.7375 2.2291 0.8604
v -2.7375 2.2291 0.8995
v -2.7375 2.1509 0.8995
v -2.6984 0.7430 -1.7989
v -2.6984 1.2514 -1.7989
v -2.6984 1.2514 -1.7598
v -2.6984 0.7430 -1.7598
v -2.6202 1.4861 -1.5643
v -2.6202 1.5643 -1.5643
v -2.6202 1.5643 1.5252
v -2.6202 1.4861 1.5252
v -2.6202 1.5252 -1.6034
v -2.6202 1.5643 -1.6034
v -2.6202 1.5252 -1.5643
v -2.6202 1.5252 1.5252
v -2.6202 1.5643 1.5643
v -2.6202 1.5252 1.5643
v -2.6202 1.7989 -1.4079
v -2.6202 1.8380 -1.4079
v -2.6202 1.8380 1.4079
v -2.6202 1.7989 1.4079
v -2.6202 1.8771 -1.4079
v -2.6202 1.8771 1.3687
v -2.6202 1.8380 1.3687
v -2.5811 1.4079 -1.4861
v -2.5811 1.4861 -1.4861
v -2.5811 1.4861 1.4470
v -2.5811 1.4079 1.4470
v -2.5811 1.4470 -1.5252
v -2.5811 1.4861 -1.5252
v -2.5811 1.4470 -1.4861
v -2.5811 1.4470 1.4470
v -2.5811 1.4861 1.4861
v -2.5811 1.4470 1.4861
v -2.4637 2.1118 -0.9386
v -2.4637 2.1509 -0.9386
v -2.4637 2.1509 -0.1564
v -2.4637 2.1118 -0.1564
v -2.4637 2.1118 0.2737
v -2.4637 2.1509 0.2737
v -2.4637 2.1509 0.7821
v -2.4637 2.1118 0.7821
v -2.4637 2.1118 0.8604
v -2.4637 2.1509 0.8604
v -2.4637 2.1509 0.8995
v -2.4637 2.1118 0.8995
v -2.4246 1.2905 -1.5643
v -2.4246 1.3296 -1.5643
v -2.4246 1.3296 1.7598
v -2.4246 1.2905 1.7598
v -2.4246 1.3296 -1.5252
v -2.4246 1.3687 -1.5252
v -2.4246 1.3687 1.5643
v -2.4246 1.3296 1.5643
v -2.4246 1.3687 -1.4861
v -2.4246 1.4079 -1.4861
v -2.4246 1.4079 1.4470
v -2.4246 1.3687 1.4470
v -2.4246 2.0727 -0.9386
v -2.4246 2.1118 -0.9386
v -2.4246 2.1118 -0.1564
v -2.4246 2.0727 -0.1564
v -2.4246 2.0727 0.1955
v -2.4246 2.1118 0.1955
v -2.4246 2.1118 0.8995
v -2.4246 2.0727 0.8995
v -2.3073 2.0336 -0.9777
v -2.3073 2.0727 -0.9777
v -2.3073 2.0727 -0.1173
v -2.3073 2.0336 -0.1173
v -2.3073 2.0336 -0.0391
v -2.3073 2.0727 -0.0391
v -2.3073 2.0727 0.0391
v -2.3073 2.0336 0.0391
v -2.3073 2.0336 0.1564
v -2.3073 2.0727 0.1564
v -2.3073 2.0727 0.9777
v -2.3073 2.0336 0.9777
v -2.3073 2.2291 -0.7039
v -2.3073 2.2682 -0.7039
v -2.3073 2.2682 -0.2346
v -2.3073 2.2291 -0.2346
v -2.3073 2.2291 0.2737
v -2.3073 2.2682 0.2737
v -2.3073 2.2682 0.7821
v -2.3073 2.2291 0.7821
v -2.3073 2.2291 0.8604
v -2.3073 2.2682 0.8604
v -2.3073 2.2682 0.8995
v -2.3073 2.2291 0.8995
v -2.2682 1.9945 -1.0168
v -2.2682 2.0336 -1.0168
v -2.2682 2.0336 1.3296
v -2.2682 1.9945 1.3296
v -2.2291 2.2682 -0.7039
v -2.2291 2.3855 -0.7039
v -2.2291 2.3855 -0.2346
v -2.2291 2.2682 -0.2346
v -2.2291 2.2682 0.2737
v -2.2291 2.3073 0.2737
v -2.2291 2.3073 0.5475
v -2.2291 2.2682 0.5475
v -2.2291 2.2682 0.8604
v -2.2291 2.3073 0.8604
v -2.2291 2.3073 0.8995
v -2.2291 2.2682 0.8995
v -2.2291 2.3855 0.2737
v -2.2291 2.3855 0.3520
v -2.2291 2.3073 0.3520
v -2.2291 2.3073 0.4302
v -2.2291 2.3464 0.4302
v -2.2291 2.3464 0.5475
v -2.2291 2.3464 -0.2346
v -2.2291 2.3855 -0.1955
v -2.2291 2.3464 -0.1955
v -2.1509 1.8380 -1.4079
v -2.1509 1.8771 -1.4079
v -2.1509 1.8771 1.3687
v -2.1509 1.8380 1.3687
v -2.1509 1.9162 -1.4079
v -2.1509 1.9162 1.3296
v -2.1509 1.8771 1.3296
v -2.1118 1.9162 -1.2123
v -2.1118 1.9945 -1.2123
v -2.1118 1.9945 1.3296
v -2.1118 1.9162 1.3296
v -1.9162 1.9945 -1.0168
v -1.9162 2.0336 -1.0168
v -1.9162 2.0336 1.3296
v -1.9162 1.9945 1.3296
v -1.6816 1.9945 -1.0168
v -1.6816 2.0336 -1.0168
v -1.6816 2.0336 1.3296
v -1.6816 1.9945 1.3296
v -1.3687 2.0336 -0.9777
v -1.3687 2.0727 -0.9777
v -1.3687 2.0727 -0.1173
v -1.3687 2.0336 -0.1173
v -1.3687 2.0336 -0.0391
v -1.3687 2.0727 -0.0391
v -1.3687 2.0727 0.0391
v -1.3687 2.0336 0.0391
v -1.3687 2.0336 0.1564
v -1.3687 2.0727 0.1564
v -1.3687 2.0727 0.9777
v -1.3687 2.0336 0.9777
v -1.3687 2.0727 -0.9386
v -1.3687 2.1509 -0.9386
v -1.3687 2.1509 -0.1564
v -1.3687 2.0727 -0.1564
v -1.3687 2.0727 0.1955
v -1.3687 2.1118 0.1955
v -1.3687 2.1118 0.8995
v -1.3687 2.0727 0.8995
v -1.3687 2.1118 0.2737
v -1.3687 2.1509 0.2737
v -1.3687 2.1509 0.7821
v -1.3687 2.1118 0.7821
v -1.3687 2.1118 0.8604
v -1.3687 2.1509 0.8604
v -1.3687 2.1509 0.8995
v -1.3296 2.1509 -0.7039
v -1.3296 2.1900 -0.7039
v -1.3296 2.1900 -0.1564
v -1.3296 2.1509 -0.1564
v -1.3296 2.1509 0.2737
v -1.3296 2.1900 0.2737
v -1.3296 2.1900 0.7821
v -1.3296 2.1509 0.7821
v -1.3296 2.1509 0.8604
v -1.3296 2.1900 0.8604
v -1.3296 2.1900 0.8995
v -1.3296 2.1509 0.8995
v -1.2905 2.1900 -0.7039
v -1.2905 2.2291 -0.7039
v -1.2905 2.2291 -0.1564
v -1.2905 2.1900 -0.1564
v -1.2905 2.1900 0.2737
v -1.2905 2.2291 0.2737
v -1.2905 2.2291 0.7821
v -1.2905 2.1900 0.7821
v -1.2905 2.1900 0.8604
v -1.2905 2.2291 0.8604
v -1.2905 2.2291 0.8995
v -1.2905 2.1900 0.8995
v -1.2123 2.2291 -0.7039
v -1.2123 2.2682 -0.7039
v -1.2123 2.2682 -0.2346
v -1.2123 2.2291 -0.2346
v -1.2123 2.2291 0.2737
v -1.2123 2.2682 0.2737
v -1.2123 2.2682 0.7821
v -1.2123 2.2291 0.7821
v -1.2123 2.2291 0.8604
v -1.2123 2.2682 0.8604
v -1.2123 2.2682 0.8995
v -1.2123 2.2291 0.8995
v -0.4302 0.7430 -1.6816
v -0.4302 1.2905 -1.6816
v -0.4302 1.2905 -1.6425
v -0.4302 0.7430 -1.6425
v -0.2346 0.7430 -1.6816
v -0.2346 1.2905 -1.6816
v -0.2346 1.2905 -1.6425
v -0.2346 0.7430 -1.6425
v 0.4693 1.5643 -1.6425
v 0.4693 1.6034 -1.6425
v 0.4693 1.6034 1.6425
v 0.4693 1.5643 1.6425
v 0.8604 1.6034 -1.6425
v 0.8604 1.6425 -1.6425
v 0.8604 1.6425 1.6425
v 0.8604 1.6034 1.6425
v 1.4861 1.6425 -1.6034
v 1.4861 1.6816 -1.6034
v 1.4861 1.6816 1.6034
v 1.4861 1.6425 1.6034
v 1.9554 1.6816 -1.5643
v 1.9554 1.7207 -1.5643
v 1.9554 1.7207 -0.5084
v 1.9554 1.6816 -0.5084
v 1.9554 1.6816 -0.0782
v 1.9554 1.7207 -0.0782
v 1.9554 1.7207 0.1173
v 1.9554 1.6816 0.1173
v 1.9554 1.6816 0.6257
v 1.9554 1.7207 0.6257
v 1.9554 1.7207 1.5643
v 1.9554 1.6816 1.5643
v 2.5029 1.5643 0.1173
v 2.5029 1.7207 0.1173
v 2.5029 1.7207 0.1564
v 2.5029 1.5643 0.1564
v 2.5811 1.7207 -0.0782
v 2.5811 1.7598 -0.0782
v 2.5811 1.7598 0.1564
v 2.5811 1.7207 0.1564
v 2.9330 1.7598 -0.0782
v 2.9330 1.7989 -0.0782
v 2.9330 1.7989 0.1564
v 2.9330 1.7598 0.1564
v 3.6370 1.7989 -0.0391
v 3.6370 1.8380 -0.0391
v 3.6370 1.8380 0.1173
v 3.6370 1.7989 0.1173
v 4.1062 1.8380 -0.0391
v 4.1062 1.8771 -0.0391
v 4.1062 1.8771 0.1173
v 4.1062 1.8380 0.1173
v 4.4582 1.8771 -0.0391
v 4.4582 1.9162 -0.0391
v 4.4582 1.9162 0.1173
v 4.4582 1.8771 0.1173
v -4.3800 1.4470 -0.0782
v -4.3800 1.4861 -0.0782
v -4.3800 1.4861 -0.8604
v -4.3800 1.4470 -0.8604
v -4.3800 1.4470 0.8604
v -4.3800 1.4861 0.8604
v -4.3800 1.4861 0.0391
v -4.3800 1.4470 0.0391
v -4.3800 1.4861 1.2514
v -4.3800 1.4861 1.0168
v -4.2627 1.4470 0.0782
v -4.2627 1.4470 0.0391
v -4.2627 0.8212 0.0391
v -4.2627 1.4079 -0.0782
v -4.2627 1.4470 -0.0782
v -4.2627 1.4470 -0.8604
v -4.2627 1.4079 -0.8604
v -4.2627 1.4079 0.8604
v -4.2627 1.4470 0.8604
v -4.2627 1.4079 0.0782
v -4.2627 1.4079 1.4470
v -4.2627 1.4470 1.4470
v -4.2627 1.4470 0.9777
v -4.2627 1.4079 0.9777
v -4.2236 1.3687 -0.0782
v -4.2236 1.4079 -0.0782
v -4.2236 1.4079 -0.8604
v -4.2236 1.3687 -0.8604
v -4.2236 1.3687 0.8604
v -4.2236 1.4079 0.8604
v -4.2236 1.4079 0.0782
v -4.2236 1.3687 0.0782
v -4.2236 1.3687 1.4470
v -4.2236 1.4079 1.4470
v -4.2236 1.4079 0.9777
v -4.2236 1.3687 0.9777
v -4.1845 1.2514 -0.0782
v -4.1845 1.3687 -0.0782
v -4.1845 1.3687 -0.8604
v -4.1845 1.2514 -0.8604
v -4.1845 1.2514 0.8604
v -4.1845 1.3687 0.8604
v -4.1845 1.3687 0.0782
v -4.1845 1.2514 0.0782
v -4.1845 1.2514 1.5252
v -4.1845 1.3687 1.5252
v -4.1845 1.3687 0.9777
v -4.1845 1.2514 0.9777
v -4.0280 0.7430 1.5643
v -4.0280 1.2514 1.5643
v -4.0280 1.2514 1.5252
v -4.0280 0.7430 1.5252
v -4.0280 1.2123 -0.9777
v -4.0280 1.2514 -0.9777
v -4.0280 1.2514 -1.6034
v -4.0280 1.2514 -0.0391
v -4.0280 1.2514 -0.8604
v -4.0280 1.2123 -0.8604
v -4.0280 1.2514 0.8604
v -4.0280 1.2514 0.0782
v -4.0280 1.2123 1.5252
v -4.0280 1.2514 0.9777
v -2.8548 0.7430 -1.7598
v -2.8548 1.2514 -1.7598
v -2.8548 1.2514 -1.7989
v -2.8548 0.7430 -1.7989
v -2.5811 0.7430 -1.7598
v -2.5811 1.2514 -1.7598
v -2.5811 1.2514 -1.7989
v -2.5811 0.7430 -1.7989
v -2.4637 1.8380 1.3687
v -2.4637 1.8771 1.3687
v -2.4637 1.8771 -1.4079
v -2.4637 1.8380 -1.4079
v -2.1118 2.1900 -0.1564
v -2.1118 2.2291 -0.1564
v -2.1118 2.2291 -0.7039
v -2.1118 2.1900 -0.7039
v -2.1118 2.1900 0.7821
v -2.1118 2.2682 0.7821
v -2.1118 2.2682 0.2737
v -2.1118 2.1900 0.2737
v -2.1118 2.1900 0.8995
v -2.1118 2.3073 0.8995
v -2.1118 2.3073 0.8604
v -2.1118 2.1900 0.8604
v -2.1118 2.2291 -0.2346
v -2.1118 2.3855 -0.2346
v -2.1118 2.3855 -0.7039
v -2.1118 2.2682 0.5475
v -2.1118 2.3073 0.5475
v -2.1118 2.3073 0.2737
v -2.1118 2.3073 0.3520
v -2.1118 2.3855 0.3520
v -2.1118 2.3855 0.2737
v -2.1118 2.3464 0.5475
v -2.1118 2.3464 0.4302
v -2.1118 2.3073 0.4302
v -2.1118 2.3464 -0.1955
v -2.1118 2.3855 -0.1955
v -2.1118 2.3464 -0.2346
v -2.0727 2.1118 -0.1564
v -2.0727 2.1509 -0.1564
v -2.0727 2.1509 -0.9386
v -2.0727 2.1118 -0.9386
v -2.0727 2.1118 0.7821
v -2.0727 2.1900 0.7821
v -2.0727 2.1900 0.2737
v -2.0727 2.1118 0.2737
v -2.0727 2.1118 0.8995
v -2.0727 2.1900 0.8995
v -2.0727 2.1900 0.8604
v -2.0727 2.1118 0.8604
v -2.0727 2.1900 -0.1564
v -2.0727 2.1900 -0.7039
v -2.0727 2.1509 -0.7039
v -2.0336 2.0727 -0.1564
v -2.0336 2.1118 -0.1564
v -2.0336 2.1118 -0.9386
v -2.0336 2.0727 -0.9386
v -2.0336 2.0727 0.8995
v -2.0336 2.1118 0.8995
v -2.0336 2.1118 0.1955
v -2.0336 2.0727 0.1955
v -1.9945 0.7430 1.7989
v -1.9945 1.2905 1.7989
v -1.9945 1.2905 1.7207
v -1.9945 0.7430 1.7207
v -1.9945 1.2905 1.7598
v -1.9945 1.3296 1.7598
v -1.9945 1.3296 1.7207
v -1.9945 1.9945 1.3296
v -1.9945 2.0336 1.3296
v -1.9945 2.0336 -1.0168
v -1.9945 1.9945 -1.0168
v -1.9945 2.0336 -0.1173
v -1.9945 2.0727 -0.1173
v -1.9945 2.0727 -0.9777
v -1.9945 2.0336 -0.9777
v -1.9945 2.0336 0.0391
v -1.9945 2.0727 0.0391
v -1.9945 2.0727 -0.0391
v -1.9945 2.0336 -0.0391
v -1.9945 2.0336 0.9777
v -1.9945 2.0727 0.9777
v -1.9945 2.0727 0.1564
v -1.9945 2.0336 0.1564
v -1.9554 0.7430 -1.6425
v -1.9554 1.2905 -1.6425
v -1.9554 1.2905 -1.7598
v -1.9554 0.7430 -1.7598
v -1.9554 0.7430 1.7207
v -1.9554 1.3296 1.7207
v -1.9554 1.3296 1.6816
v -1.9554 0.7430 1.6816
v -1.8380 1.9945 1.3296
v -1.8380 2.0336 1.3296
v -1.8380 2.0336 -1.0168
v -1.8380 1.9945 -1.0168
v -1.0950 1.8771 1.3296
v -1.0950 1.9162 1.3296
v -1.0950 1.9162 -1.4079
v -1.0950 1.8771 -1.4079
v -1.0950 1.9945 1.3296
v -1.0950 1.9945 -1.2123
v -1.0950 1.9162 -1.2123
v -1.0950 2.0336 1.3296
v -1.0950 2.0336 -1.0168
v -1.0950 1.9945 -1.0168
v -1.0950 2.0336 -0.1173
v -1.0950 2.0727 -0.1173
v -1.0950 2.0727 -0.9777
v -1.0950 2.0336 -0.9777
v -1.0950 2.0336 0.0391
v -1.0950 2.0727 0.0391
v -1.0950 2.0727 -0.0391
v -1.0950 2.0336 -0.0391
v -1.0950 2.0336 0.9777
v -1.0950 2.0727 0.9777
v -1.0950 2.0727 0.1564
v -1.0950 2.0336 0.1564
v -1.0950 2.0727 -0.1564
v -1.0950 2.1509 -0.1564
v -1.0950 2.1509 -0.9386
v -1.0950 2.0727 -0.9386
v -1.0950 2.0727 0.8995
v -1.0950 2.1118 0.8995
v -1.0950 2.1118 0.1955
v -1.0950 2.0727 0.1955
v -1.0950 2.1118 0.7821
v -1.0950 2.2682 0.7821
v -1.0950 2.2682 0.2737
v -1.0950 2.1118 0.2737
v -1.0950 2.2682 0.8995
v -1.0950 2.2682 0.8604
v -1.0950 2.1118 0.8604
v -1.0950 2.2291 -0.1564
v -1.0950 2.2291 -0.7039
v -1.0950 2.1509 -0.7039
v -1.0950 2.2291 -0.2346
v -1.0950 2.2682 -0.2346
v -1.0950 2.2682 -0.7039
v -0.7430 1.7989 1.4079
v -0.7430 1.8380 1.4079
v -0.7430 1.8380 -1.4079
v -0.7430 1.7989 -1.4079
v -0.7430 1.8380 1.3687
v -0.7430 1.8771 1.3687
v -0.7430 1.8771 -1.4079
v -0.3520 0.7430 -1.6425
v -0.3520 1.2905 -1.6425
v -0.3520 1.2905 -1.6816
v -0.3520 0.7430 -1.6816
v -0.3129 1.6816 1.5643
v -0.3129 1.7207 1.5643
v -0.3129 1.7207 -1.5643
v -0.3129 1.6816 -1.5643
v -0.3129 1.7207 1.4861
v -0.3129 1.7598 1.4861
v -0.3129 1.7598 -1.4861
v -0.3129 1.7207 -1.4861
v -0.3129 1.7598 1.4470
v -0.3129 1.7989 1.4470
v -0.3129 1.7989 -1.4470
v -0.3129 1.7598 -1.4470
v -0.1955 0.7430 -1.6425
v -0.1955 1.2905 -1.6425
v -0.1955 1.2905 -1.6816
v -0.1955 0.7430 -1.6816
v -0.1173 1.6425 1.6034
v -0.1173 1.6816 1.6034
v -0.1173 1.6816 -1.6034
v -0.1173 1.6425 -1.6034
v 0.1173 1.6034 1.6425
v 0.1173 1.6425 1.6425
v 0.1173 1.6425 -1.6425
v 0.1173 1.6034 -1.6425
v 0.1955 1.2514 1.6816
v 0.1955 1.2905 1.6816
v 0.1955 1.2905 -1.6425
v 0.1955 1.2514 -1.6425
v 0.1955 1.5643 1.6425
v 0.1955 1.6034 1.6425
v 0.1955 1.6034 -1.6425
v 0.1955 1.5643 -1.6425
v 0.2346 1.2905 1.6816
v 0.2346 1.3296 1.6816
v 0.2346 1.3296 -1.5643
v 0.2346 1.2905 -1.5643
v 0.2346 1.3296 1.5643
v 0.2346 1.3687 1.5643
v 0.2346 1.3687 -1.5252
v 0.2346 1.3296 -1.5252
v 0.2737 1.2123 1.6816
v 0.2737 1.2514 1.6816
v 0.2737 1.2514 -1.6425
v 0.2737 1.2123 -1.6425
v 0.4302 1.1732 1.6816
v 0.4302 1.2123 1.6816
v 0.4302 1.2123 -1.6425
v 0.4302 1.1732 -1.6425
v 0.5475 1.1341 1.6816
v 0.5475 1.1732 1.6816
v 0.5475 1.1732 -1.6425
v 0.5475 1.1341 -1.6425
v 0.7039 1.3687 1.4470
v 0.7039 1.4079 1.4470
v 0.7039 1.4079 -1.4861
v 0.7039 1.3687 -1.4861
v 1.0168 1.0950 1.6816
v 1.0168 1.1341 1.6816
v 1.0168 1.1341 -1.6425
v 1.0168 1.0950 -1.6425
v 1.0559 1.4079 1.4470
v 1.0559 1.4470 1.4470
v 1.0559 1.4470 -1.4861
v 1.0559 1.4079 -1.4861
v 1.2514 1.0559 1.6816
v 1.2514 1.0950 1.6816
v 1.2514 1.0950 -1.6425
v 1.2514 1.0559 -1.6425
v 1.2905 1.0168 1.6816
v 1.2905 1.0559 1.6816
v 1.2905 1.0559 -1.6425
v 1.2905 1.0168 -1.6425
v 1.3296 0.0000 -1.1341
v 1.3296 0.7430 -1.1341
v 1.3296 0.7430 -1.5252
v 1.3296 0.0000 -1.5252
v 1.3296 0.0000 -1.0168
v 1.3296 0.7430 -1.0168
v 1.3296 0.0000 1.1341
v 1.3296 0.7430 1.1341
v 1.3296 0.7430 1.0559
v 1.3296 0.0000 1.0559
v 1.3296 0.0000 1.4470
v 1.3296 0.7430 1.4470
v 1.3296 0.0391 -0.9777
v 1.3296 0.7430 -0.9777
v 1.3296 0.0391 -1.0168
v 1.3296 0.0391 1.0559
v 1.3296 0.7430 0.9777
v 1.3296 0.0391 0.9777
v 1.3296 0.0391 1.5252
v 1.3296 0.7430 1.5252
v 1.3296 0.0391 1.4470
v 1.3296 0.3520 -0.7430
v 1.3296 0.7430 -0.7430
v 1.3296 0.3520 -0.9777
v 1.3296 0.3520 0.0782
v 1.3296 0.7430 0.0782
v 1.3296 0.7430 -0.0782
v 1.3296 0.3520 -0.0782
v 1.3296 0.3520 0.9777
v 1.3296 0.7430 0.7430
v 1.3296 0.3520 0.7430
v 1.3296 0.3911 -1.5252
v 1.3296 0.7430 -1.6816
v 1.3296 0.3911 -1.6816
v 1.3296 0.3911 -0.6648
v 1.3296 0.7430 -0.6648
v 1.3296 0.3911 -0.7430
v 1.3296 0.3911 -0.0782
v 1.3296 0.7430 -0.4302
v 1.3296 0.3911 -0.4302
v 1.3296 0.3911 0.3911
v 1.3296 0.7430 0.3911
v 1.3296 0.3911 0.0782
v 1.3296 0.3911 0.7430
v 1.3296 0.7430 0.6648
v 1.3296 0.3911 0.6648
v 1.3296 0.3911 1.6816
v 1.3296 0.7430 1.6816
v 1.3296 0.3911 1.5252
v 1.3296 0.4302 -0.4302
v 1.3296 0.4302 -0.6648
v 1.3296 0.4302 0.6648
v 1.3296 0.4302 0.3911
v 1.3296 0.5084 -1.6816
v 1.3296 0.7430 -1.7207
v 1.3296 0.5084 -1.7207
v 1.3296 0.5475 1.7207
v 1.3296 0.7430 1.7207
v 1.3296 0.5475 1.6816
v 1.3296 0.9777 1.6816
v 1.3296 1.0168 1.6816
v 1.3296 1.0168 -1.6425
v 1.3296 0.9777 -1.6425
v 1.3687 0.9386 1.6816
v 1.3687 0.9777 1.6816
v 1.3687 0.9777 -1.6425
v 1.3687 0.9386 -1.6425
v 1.4079 0.8604 1.6816
v 1.4079 0.9386 1.6816
v 1.4079 0.9386 -1.6425
v 1.4079 0.8604 -1.6425
v 1.4470 0.7430 1.6816
v 1.4470 0.7821 1.6816
v 1.4470 0.7821 -1.6425
v 1.4470 0.7430 -1.6425
v 1.4470 0.8212 1.6816
v 1.4470 0.8604 1.6816
v 1.4470 0.8604 -1.6425
v 1.4470 0.8212 -1.6425
v 1.4861 0.7821 1.6816
v 1.4861 0.8212 1.6816
v 1.4861 0.8212 -1.6425
v 1.4861 0.7821 -1.6425
v 1.5643 1.4470 1.4861
v 1.5643 1.4861 1.4861
v 1.5643 1.4861 -1.5252
v 1.5643 1.4470 -1.5252
v 1.8771 1.4861 0.4693
v 1.8771 1.6816 0.4693
v 1.8771 1.6816 0.1564
v 1.8771 1.4861 0.1564
v 1.9162 1.4861 -0.0782
v 1.9162 1.6816 -0.0782
v 1.9162 1.6816 -0.4302
v 1.9162 1.4861 -0.4302
v 1.9162 1.4861 0.1564
v 1.9162 1.6816 0.1564
v 1.9162 1.6816 0.1173
v 1.9162 1.4861 0.1173
v 1.9162 1.4861 0.5475
v 1.9162 1.6816 0.5475
v 1.9162 1.6816 0.4693
v 1.9162 1.4861 0.4693
v 1.9554 1.4861 -0.4302
v 1.9554 1.5252 -0.4302
v 1.9554 1.5252 -1.5643
v 1.9554 1.4861 -1.5643
v 1.9554 1.4861 0.1173
v 1.9554 1.5252 0.1173
v 1.9554 1.5252 -0.0782
v 1.9554 1.4861 -0.0782
v 1.9554 1.4861 1.5252
v 1.9554 1.5252 1.5252
v 1.9554 1.5252 0.5475
v 1.9554 1.4861 0.5475
v 1.9554 1.6816 -0.4302
v 1.9554 1.5252 -0.5084
v 1.9554 1.5252 0.6257
v 1.9554 1.6816 0.5475
v 1.9554 1.5643 -1.6034
v 1.9554 1.6425 -1.6034
v 1.9554 1.6425 -1.6425
v 1.9554 1.5643 -1.6425
v 1.9945 1.5252 -0.5084
v 1.9945 1.7207 -0.5084
v 1.9945 1.7207 -0.5866
v 1.9945 1.5252 -0.5866
v 1.9945 1.5252 0.6648
v 1.9945 1.7207 0.6648
v 1.9945 1.7207 0.6257
v 1.9945 1.5252 0.6257
v 2.0336 1.5252 -0.5866
v 2.0336 1.7207 -0.5866
v 2.0336 1.7207 -0.6648
v 2.0336 1.5252 -0.6648
v 2.0336 1.5252 0.7430
v 2.0336 1.7207 0.7430
v 2.0336 1.7207 0.6648
v 2.0336 1.5252 0.6648
v 2.0727 1.5252 -1.5643
v 2.0727 1.6816 -1.5643
v 2.0727 1.6816 -1.6034
v 2.0727 1.5252 -1.6034
v 2.0727 1.5252 -0.6648
v 2.0727 1.7207 -0.6648
v 2.0727 1.7207 -0.7039
v 2.0727 1.5252 -0.7039
v 2.0727 1.5252 0.8212
v 2.0727 1.7207 0.8212
v 2.0727 1.7207 0.7430
v 2.0727 1.5252 0.7430
v 2.0727 1.5643 1.6425
v 2.0727 1.6425 1.6425
v 2.0727 1.6425 1.6034
v 2.0727 1.5643 1.6034
v 2.1118 1.5252 -0.7039
v 2.1118 1.7207 -0.7039
v 2.1118 1.7207 -0.7821
v 2.1118 1.5252 -0.7821
v 2.1118 1.5252 0.8604
v 2.1118 1.7207 0.8604
v 2.1118 1.7207 0.8212
v 2.1118 1.5252 0.8212
v 2.1509 1.5252 -1.5252
v 2.1509 1.7207 -1.5252
v 2.1509 1.7207 -1.5643
v 2.1509 1.5252 -1.5643
v 2.1509 1.5252 -0.7821
v 2.1509 1.7207 -0.7821
v 2.1509 1.7207 -0.8604
v 2.1509 1.5252 -0.8604
v 2.1509 1.5252 0.9386
v 2.1509 1.7207 0.9386
v 2.1509 1.7207 0.8604
v 2.1509 1.5252 0.8604
v 2.1509 1.5252 1.5643
v 2.1509 1.7207 1.5643
v 2.1509 1.7207 1.5252
v 2.1509 1.5252 1.5252
v 2.1509 1.5643 1.6034
v 2.1509 1.6816 1.6034
v 2.1509 1.6816 1.5643
v 2.1509 1.5643 1.5643
v 2.1900 1.5252 -1.4470
v 2.1900 1.7207 -1.4470
v 2.1900 1.7207 -1.5252
v 2.1900 1.5252 -1.5252
v 2.1900 1.5252 -0.8604
v 2.1900 1.7207 -0.8604
v 2.1900 1.7207 -0.8995
v 2.1900 1.5252 -0.8995
v 2.1900 1.5252 1.0168
v 2.1900 1.7207 1.0168
v 2.1900 1.7207 0.9386
v 2.1900 1.5252 0.9386
v 2.1900 1.5252 1.5252
v 2.1900 1.7207 1.5252
v 2.1900 1.7207 1.4470
v 2.1900 1.5252 1.4470
v 2.2291 1.5252 -1.2123
v 2.2291 1.7207 -1.2123
v 2.2291 1.7207 -1.4470
v 2.2291 1.5252 -1.4470
v 2.2291 1.5252 -0.8995
v 2.2291 1.7207 -0.8995
v 2.2291 1.7207 -1.1341
v 2.2291 1.5252 -1.1341
v 2.2291 1.5252 1.4470
v 2.2291 1.7207 1.4470
v 2.2291 1.7207 1.0168
v 2.2291 1.5252 1.0168
v 2.2682 1.5252 -1.1341
v 2.2682 1.7207 -1.1341
v 2.2682 1.7207 -1.2123
v 2.2682 1.5252 -1.2123
v 2.3464 1.5252 0.1173
v 2.3464 1.5643 0.1173
v 2.3464 1.5643 -0.0782
v 2.3464 1.5252 -0.0782
v 3.0895 1.5643 0.1564
v 3.0895 1.6034 0.1564
v 3.0895 1.6034 -0.0782
v 3.0895 1.5643 -0.0782
v 3.2459 1.6034 0.1564
v 3.2459 1.7598 0.1564
v 3.2459 1.7598 0.1173
v 3.2459 1.6034 0.1173
v 3.2459 1.7989 0.1564
v 3.2459 1.7989 0.1173
v 3.2850 1.6034 -0.0391
v 3.2850 1.7598 -0.0391
v 3.2850 1.7598 -0.0782
v 3.2850 1.6034 -0.0782
v 3.2850 1.7989 -0.0391
v 3.2850 1.7989 -0.0782
v 3.3632 1.6034 0.1173
v 3.3632 1.6425 0.1173
v 3.3632 1.6425 -0.0391
v 3.3632 1.6034 -0.0391
v 3.8325 1.6425 0.1173
v 3.8325 1.6816 0.1173
v 3.8325 1.6816 -0.0391
v 3.8325 1.6425 -0.0391
v 4.2236 1.6816 0.1173
v 4.2236 1.7207 0.1173
v 4.2236 1.7207 -0.0391
v 4.2236 1.6816 -0.0391
v 4.6146 1.8771 0.1173
v 4.6146 1.9162 0.1173
v 4.6146 1.9162 -0.0391
v 4.6146 1.8771 -0.0391
v 4.6537 1.7207 0.1173
v 4.6537 1.7598 0.1173
v 4.6537 1.7598 -0.0391
v 4.6537 1.7207 -0.0391
v 4.6537 1.8771 0.1173
v 4.6537 1.8771 -0.0391
v -4.2236 0.7430 -0.8604
v -4.2236 0.7430 0.8604
v -1.9554 0.7430 -1.7207
v 1.3296 0.7430 -1.6425
v -4.3800 0.9386 1.1732
v -4.3800 0.9386 1.2123
v -4.3800 0.9386 1.0559
v 0.1955 1.2905 -1.5643
v 0.2346 1.3687 -1.4861
v 0.2346 1.3687 1.4470
v 1.5643 1.4470 -1.4861
v 1.5643 1.4470 1.4470
v -2.5811 1.4861 -1.5643
v -2.5811 1.4861 1.5252
v 1.9554 1.4861 -1.5252
v 1.9554 1.4861 1.4861
v 1.8771 1.4861 -1.5252
v 1.8771 1.4861 1.4861
v 1.9162 1.4861 -1.5252
v 1.9162 1.4861 1.4861
v 1.9945 1.5252 -1.5643
v 1.9945 1.5252 1.5252
v 2.0336 1.5252 -1.5643
v 2.0336 1.5252 1.5252
v 2.0727 1.5252 1.5252
v 2.1118 1.5252 -1.5643
v 2.1118 1.5252 1.5252
v -2.6202 1.5643 -1.6425
v -2.6202 1.5643 1.6425
v 0.1955 1.5643 -1.6034
v 0.1955 1.5643 1.5643
v 0.4693 1.5643 -1.6034
v 0.4693 1.5643 1.5643
v 2.0727 1.5643 1.5643
v 3.0895 1.5643 0.1173
v 3.2459 1.6034 -0.0782
v 3.2850 1.6034 0.1173
v -2.1118 1.9945 -1.0168
v -2.2682 2.0336 -0.9777
v -2.2682 2.0336 -0.1173
v -2.2682 2.0336 -0.0391
v -2.2682 2.0336 0.0391
v -2.2682 2.0336 0.1564
v -2.2682 2.0336 0.9777
v -2.3073 2.0727 -0.9386
v -2.3073 2.0727 -0.1564
v -2.3073 2.0727 0.1955
v -2.3073 2.0727 0.8995
v -2.4246 2.1118 0.2737
v -2.4246 2.1118 0.7821
v -2.4246 2.1118 0.8604
v -2.4637 2.1509 -0.7039
v -4.1454 0.7430 -1.1341
v -4.1454 0.7430 -1.7207
v -4.1454 0.7430 -0.8604
v -4.0671 0.7430 0.0782
v -4.0671 0.7430 1.7207
v -4.1062 0.7430 -1.7207
v -4.0671 0.7430 -1.7207
v -4.0280 0.7430 -1.7207
v -3.7934 0.7430 1.5643
v -0.4302 0.7430 -1.7207
v -3.9498 1.2123 -0.9777
v -3.9498 1.2123 -1.6425
v -3.9498 1.2123 -0.8604
v -4.0280 1.2514 -0.0782
v -4.0280 1.2514 -1.2514
v -4.0280 1.2514 -1.5252
v -3.5979 1.2514 1.5252
v -3.5979 1.2514 1.7207
v -2.4246 1.2905 1.7989
v -2.4246 1.2905 -1.7598
v -1.9554 1.2905 -1.5643
v -1.9945 1.3296 1.5643
v -1.9554 1.3296 1.5643
v -4.1845 1.3687 1.4470
v -4.3800 1.4861 1.2123
v -4.3800 1.4861 1.0559
v 0.1173 1.6425 -1.6034
v 0.1173 1.6425 1.6034
v 1.4861 1.6425 1.6425
v 1.4861 1.6425 -1.6425
v -0.1173 1.6816 -1.5643
v -0.1173 1.6816 1.5643
v 1.8771 1.6816 1.6034
v 1.8771 1.6816 -1.6034
v 1.9162 1.6816 -1.6034
v 1.9162 1.6816 1.6034
v 1.9554 1.6816 -1.6034
v 1.9554 1.6816 1.6034
v 1.9945 1.7207 -1.5643
v 2.5811 1.7207 0.1173
v 1.9945 1.7207 1.5643
v 2.0336 1.7207 -1.5643
v 2.0336 1.7207 1.5643
v 2.0727 1.7207 -1.5643
v 2.0727 1.7207 1.5643
v 2.1118 1.7207 -1.5643
v 2.1118 1.7207 1.5643
v -2.7375 1.7598 1.4861
v -2.7375 1.7598 -1.4861
v -2.6202 1.7989 1.4470
v -2.6202 1.7989 -1.4470
v -0.3129 1.7989 -1.4079
v -0.3129 1.7989 1.4079
v 3.2459 1.7989 -0.0782
v 3.2850 1.7989 0.1173
v -0.7430 1.8771 1.3296
v -2.1118 1.9162 -1.4079
v -1.3687 2.0336 1.3296
v -1.3687 2.0336 -1.0168
v -1.9945 2.0727 -0.9386
v -1.9945 2.0727 -0.1564
v -1.9945 2.0727 0.1955
v -1.9945 2.0727 0.8995
v -2.0336 2.1118 0.2737
v -2.0336 2.1118 0.8604
v -2.0336 2.1118 0.7821
v -1.3296 2.1509 -0.9386
v -2.3073 2.2291 -0.1564
v -1.2123 2.2291 -0.1564
v -2.2291 2.2682 0.7821
v -1.9554 1.2514 -1.7598
v 0.1955 0.7430 -1.6425
v 0.2737 0.7430 -1.6425
v 0.4302 0.7430 -1.6425
v 0.5475 0.7430 -1.6425
v 1.9554 1.6034 -1.6425
v 1.0168 0.7430 -1.6425
v 1.2514 0.7430 -1.6425
v 1.2905 0.7430 -1.6425
v 1.3687 0.7430 -1.6425
v 1.4079 0.7430 -1.6425
v 2.0727 1.5643 -1.6034
v 2.0727 1.6425 -1.6034
v 2.1509 1.6816 -1.5643
v -2.4637 1.7989 -1.4079
v -1.0950 1.8380 -1.4079
v -4.2236 1.0559 -0.8604
v -3.9889 1.0168 -0.8604
v -3.9889 1.0559 -0.8604
v -3.9889 0.9386 -0.8604
v -3.9889 0.8604 -0.8604
v -3.9889 0.8212 -0.8604
v -4.1845 1.0559 -0.8604
v -4.0280 1.0559 -0.8604
v -2.1118 2.1509 -0.7039
v -2.1118 2.2682 -0.7039
v -1.0950 2.1900 -0.7039
v 2.3464 1.7207 -0.0782
v 3.0895 1.7207 -0.0782
v 3.2850 1.7207 -0.0782
v 3.3632 1.7598 -0.0391
v 4.6537 1.7989 -0.0391
v 3.8325 1.7598 -0.0391
v 4.6537 1.8380 -0.0391
v 4.2236 1.7598 -0.0391
v -4.2627 1.0559 0.0391
v -4.2627 1.4079 0.0391
v -4.2627 1.0168 0.0391
v -4.2627 0.9386 0.0391
v -4.2627 0.8604 0.0391
v -4.1845 0.7430 0.0782
v -2.1118 2.1509 0.2737
v -2.1118 2.2291 0.2737
v -2.0727 2.1509 0.2737
v -1.0950 2.1509 0.2737
v -1.0950 2.1900 0.2737
v -1.0950 2.2291 0.2737
v -2.1118 2.1509 0.8604
v -2.1118 2.2291 0.8604
v -2.0727 2.1509 0.8604
v -2.1118 2.2682 0.8604
v -1.0950 2.1509 0.8604
v -1.0950 2.1900 0.8604
v -1.0950 2.2291 0.8604
v -4.2627 0.8604 0.9777
v -4.0280 0.8212 0.9777
v -4.0280 0.8604 0.9777
v -4.2236 0.8604 0.9777
v -4.1845 0.8604 0.9777
v -4.0280 0.7430 -0.9777
v -2.1118 2.2682 -0.2346
v -2.1118 2.1509 -0.1564
v -1.0950 2.1900 -0.1564
v -4.1845 1.3296 -0.0782
v -4.1845 1.1341 -0.0782
v -4.0671 1.1341 -0.0782
v -4.0671 1.0559 -0.0782
v -4.2236 1.3296 -0.0782
v -4.0671 1.0168 -0.0782
v -4.0671 0.9386 -0.0782
v -4.0671 0.8604 -0.0782
v -4.0671 0.8212 -0.0782
v 2.3464 1.7207 0.1173
v 3.3632 1.7598 0.1173
v 4.6537 1.7989 0.1173
v 3.8325 1.7598 0.1173
v 4.6537 1.8380 0.1173
v 4.2236 1.7598 0.1173
v 3.0895 1.7207 0.1564
v 3.2459 1.7207 0.1564
v -2.1118 2.2291 0.7821
v -2.1118 2.1509 0.7821
v -2.0727 2.1509 0.7821
v -1.0950 2.1509 0.7821
v -1.0950 2.1900 0.7821
v -1.0950 2.2291 0.7821
v -4.2236 1.0559 0.8604
v -4.0280 1.0559 0.8604
v -4.0280 1.0168 0.8604
v -4.0280 0.9386 0.8604
v -4.0280 0.8604 0.8604
v -4.0280 0.8212 0.8604
v -4.1845 1.0559 0.8604
v -2.1118 2.2291 0.8995
v -2.1118 2.1509 0.8995
v -2.0727 2.1509 0.8995
v -2.1118 2.2682 0.8995
v -1.0950 2.1509 0.8995
v -1.0950 2.1900 0.8995
v -1.0950 2.2291 0.8995
v -4.4191 1.4470 1.2123
v -4.2627 1.3687 1.4470
v -4.1845 0.8604 1.5252
v -4.0671 0.8604 1.5252
v -4.0671 0.8212 1.5252
v -3.7934 1.2123 1.5252
v 2.1509 1.6425 1.6034
v 2.0727 1.6034 1.6425
v 0.1955 1.3296 1.6816
v 0.1955 0.7430 1.6816
v 0.2737 0.7430 1.6816
v 0.4302 0.7430 1.6816
v 0.5475 0.7430 1.6816
v 1.0168 0.7430 1.6816
v 1.2514 0.7430 1.6816
v 1.2905 0.7430 1.6816
v 1.3687 0.7430 1.6816
v 1.4079 0.7430 1.6816
v -1.9945 1.2514 1.7989
g hull
usemtl hull
f 1 2 3 4
f 5 6 7 8
f 9 10 11 12
f 13 14 15 16
f 10 17 18 19
f 20 21 22 23
f 24 18 21 25
f 26 22 27 28
f 29 30 31 32
f 33 34 35 36
f 37 38 39 40
f 41 42 43 44
f 45 46 47 48
f 49 50 51 52
f 53 54 55 56
f 57 58 59 60
f 61 62 63 64
f 65 66 67 68
f 69 59 70 71
f 72 73 74 75
f 76 77 78 79
f 80 81 82 83
f 84 85 86 87
f 88 89 90 91
f 89 92 93 94
f 95 96 97 90
f 96 98 99 100
f 101 102 103 104
f 105 106 107 108
f 109 110 111 112
f 113 114 115 116
f 117 118 119 120
f 121 122 123 124
g track
usemtl track
f 125 126 127 128
g hull_belly
usemtl hull_belly
f 128 127 129 130
f 131 132 133 134
g track
usemtl track
f 134 133 135 136
g hull_belly
usemtl hull_belly
f 137 129 138 139
f 140 141 132 142
g track
usemtl track
f 143 135 144 145
g hull_belly
usemtl hull_belly
f 146 138 147 148
f 149 150 151 152
f 153 154 141 155
g track
usemtl track
f 156 157 126 158
g hull_belly
usemtl hull_belly
f 159 147 160 161
f 162 163 150 164
f 165 151 166 167
f 168 169 154 170
g track
usemtl track
f 171 144 172 173
g hull_belly
usemtl hull_belly
f 174 160 163 175
f 176 166 169 177
g track
usemtl track
f 178 179 157 180
f 181 172 182 183
g hull
usemtl hull
f 184 185 186 187
f 188 189 190 191
f 192 193 194 195
f 196 197 198 199
f 200 201 202 203
f 204 205 206 207
f 208 209 210 211
f 212 213 214 215
f 216 217 218 219
f 220 221 222 223
f 224 225 226 227
f 228 226 229 230
f 231 232 233 234
f 235 236 237 238
f 239 240 241 242
f 243 244 245 246
f 247 248 249 250
f 251 252 253 254
f 255 256 257 258
f 259 260 261 262
f 263 264 265 266
g turret
usemtl turret
f 267 268 269 270
f 271 272 273 274
f 275 276 277 278
f 279 280 281 282
g hull
usemtl hull
f 283 284 285 286
f 287 288 289 290
f 291 292 288 293
f 294 289 295 296
g turret
usemtl turret
f 297 298 299 300
f 298 301 302 303
g hull
usemtl hull
f 304 305 306 307
f 308 309 305 310
f 311 306 312 313
g turret
usemtl turret
f 314 315 316 317
f 318 319 320 321
f 322 323 324 325
g hull
usemtl hull
f 326 327 328 329
f 330 331 332 333
f 334 335 336 337
g turret
usemtl turret
f 338 339 340 341
f 342 343 344 345
f 346 347 348 349
f 350 351 352 353
f 354 355 356 357
f 358 359 360 361
f 362 363 364 365
f 366 367 368 369
f 370 371 372 373
f 374 375 376 377
f 378 379 380 381
f 382 383 384 385
f 379 386 387 388
f 389 390 391 380
f 392 376 393 394
f 395 396 397 398
f 396 399 400 401
f 402 403 404 405
f 406 407 408 409
f 410 411 412 413
f 414 415 416 417
f 418 419 420 421
f 422 423 424 425
f 426 427 428 429
f 430 431 432 433
f 434 435 436 437
f 438 439 440 432
f 441 442 443 444
f 445 446 447 448
f 449 450 451 452
f 453 454 455 456
f 457 458 459 460
f 461 462 463 464
f 465 466 467 468
f 469 470 471 472
f 473 474 475 476
g hull
usemtl hull
f 477 478 479 480
f 481 482 483 484
f 485 486 487 488
f 489 490 491 492
f 493 494 495 496
f 497 498 499 500
f 501 502 503 504
f 505 506 507 508
f 509 510 511 512
f 513 514 515 516
g turret
usemtl turret
f 517 518 519 520
f 521 522 523 524
f 525 526 527 528
f 529 530 531 532
g hull
usemtl hull
f 533 534 535 536
f 537 538 539 540
f 98 541 542 93
f 118 543 544 545
f 546 547 548 549
f 550 551 543 552
f 553 554 555 556
f 557 558 559 560
f 561 562 563 564
f 565 566 567 568
f 569 570 571 572
f 573 574 575 576
f 577 578 579 580
f 581 582 583 584
f 585 586 587 206
f 209 588 589 590
f 213 591 592 210
f 593 583 594 214
f 595 596 597 598
f 599 600 601 602
g turret
usemtl turret
f 603 604 605 606
f 607 608 609 610
f 611 612 613 614
f 615 616 617 618
f 619 620 621 609
f 622 623 624 613
f 625 626 627 624
f 623 628 629 630
f 631 632 620 633
f 634 635 636 637
f 638 639 640 641
f 642 643 644 645
f 635 646 647 648
f 649 650 651 652
f 653 654 655 656
g hull
usemtl hull
f 657 658 659 660
f 661 662 663 659
g turret
usemtl turret
f 664 665 666 667
f 668 669 670 671
f 672 673 674 675
f 676 677 678 679
g hull
usemtl hull
f 680 681 682 683
f 684 685 686 687
g turret
usemtl turret
f 688 689 690 691
f 692 693 694 695
f 693 696 697 698
f 696 699 700 701
f 702 703 704 705
f 706 707 708 709
f 710 711 712 713
f 714 715 716 717
f 718 719 720 721
f 722 723 724 725
f 719 726 727 728
f 715 729 730 731
f 732 733 734 730
f 735 736 737 738
f 739 740 741 737
g hull
usemtl hull
f 742 743 744 745
f 746 747 748 749
f 750 751 752 753
g turret
usemtl turret
f 754 755 756 757
g hull
usemtl hull
f 758 759 760 761
f 762 763 764 765
f 766 767 768 769
f 770 771 772 773
f 774 775 776 777
f 778 779 780 781
f 782 783 784 785
f 786 787 788 789
f 790 791 792 793
f 794 795 796 797
f 798 799 800 801
f 802 803 804 805
f 806 807 808 809
f 810 811 812 813
f 814 815 816 817
g track
usemtl track
f 818 819 820 821
g hull_belly
usemtl hull_belly
f 822 823 819 818
f 824 825 826 827
g track
usemtl track
f 828 829 825 824
g hull_belly
usemtl hull_belly
f 830 831 823 832
f 833 826 834 835
g track
usemtl track
f 836 837 829 838
g hull_belly
usemtl hull_belly
f 839 840 831 841
f 842 843 844 845
f 846 834 847 848
g track
usemtl track
f 849 820 850 851
g hull_belly
usemtl hull_belly
f 852 853 840 854
f 855 844 856 857
f 858 859 843 860
f 861 847 862 863
g track
usemtl track
f 864 865 837 866
g hull_belly
usemtl hull_belly
f 867 856 853 868
f 869 862 859 870
g track
usemtl track
f 871 850 872 873
f 874 875 865 876
g hull
usemtl hull
f 877 878 879 880
f 881 882 883 884
f 885 886 887 888
f 889 890 891 892
f 893 894 895 896
f 897 898 899 900
f 901 902 903 904
f 905 906 907 908
f 909 910 911 912
f 913 914 915 916
f 917 918 919 920
f 921 922 923 924
f 925 926 927 928
f 929 930 931 932
f 922 933 500 934
f 935 505 936 931
f 937 938 939 940
f 941 942 943 944
f 945 946 947 948
f 949 950 951 952
f 953 954 955 956
f 957 958 959 960
f 961 962 963 964
f 965 966 967 968
f 969 970 971 972
f 973 974 975 976
f 977 978 979 980
f 981 982 983 984
f 985 986 987 988
f 989 990 991 992
f 993 994 995 996
f 997 998 999 1000
f 1001 1002 1003 1004
f 1005 1006 1007 1008
f 1009 1010 1011 1012
f 1013 1014 1015 1016
f 1017 1018 1019 1020
f 1021 1022 1023 1024
f 1025 1026 1027 1028
f 1029 1030 1031 1032
f 1033 1034 1035 1036
f 1037 1038 1039 1040
f 1041 1042 1043 1044
g turret
usemtl turret
f 1042 1045 1046 1043
g hull
usemtl hull
f 1047 1048 1049 1050
g turret
usemtl turret
f 1048 1051 1052 1049
g hull
usemtl hull
f 1053 1054 1055 1056
f 1057 1058 1059 1060
f 1061 1062 1063 1064
g turret
usemtl turret
f 1065 1066 1067 1068
g hull
usemtl hull
f 1069 1070 1071 1072
g turret
usemtl turret
f 1070 1073 1074 1071
g track
usemtl track
f 125 821 818 128
g hull_belly
usemtl hull_belly
f 128 818 822 130
f 131 827 824 134
g track
usemtl track
f 134 824 828 136
g hull_belly
usemtl hull_belly
f 137 832 830 139
f 140 835 833 142
g track
usemtl track
f 143 838 836 145
g hull_belly
usemtl hull_belly
f 146 841 839 148
f 149 845 842 152
f 153 848 846 155
g track
usemtl track
f 156 851 849 158
g hull_belly
usemtl hull_belly
f 159 854 852 161
f 162 857 855 164
f 165 860 858 167
f 168 863 861 170
g track
usemtl track
f 171 866 864 173
g hull_belly
usemtl hull_belly
f 174 868 867 175
f 176 870 869 177
g track
usemtl track
f 178 873 871 180
f 181 876 874 183
g hull
usemtl hull
f 113 1075 150 116
f 117 151 1076 120
f 121 141 144 124
f 224 683 1077 227
f 231 660 657 234
f 243 598 595 246
f 283 602 599 286
f 1078 892 889 865
f 891 900 897 890
f 101 114 115 104
f 105 545 119 108
f 109 122 123 112
f 80 102 103 83
f 84 106 107 87
f 88 110 111 91
f 37 81 82 40
f 41 85 86 44
f 53 1079 1080 56
f 57 1081 1079 60
f 72 94 1081 75
f 76 1080 95 79
f 29 38 39 32
f 33 42 43 36
f 9 30 31 12
f 13 34 35 16
f 1 19 20 4
f 5 23 11 8
f 1082 781 778 771
f 1083 801 798 1084
f 304 335 336 307
f 800 809 806 799
f 308 904 1085 310
f 311 1086 901 313
f 808 1085 1086 807
f 287 1087 1088 290
f 1087 924 1089 309
f 312 1090 929 1088
f 903 1091 1092 902
f 1091 1093 913 908
f 905 920 1094 1092
f 1093 1089 921 912
f 909 928 925 916
f 917 932 1090 1094
f 291 960 957 293
f 294 996 993 296
f 923 1095 941 934
f 927 1036 1033 926
f 935 948 1096 930
f 1095 1097 949 944
f 945 956 1098 1096
f 1097 957 961 952
f 953 968 1099 1098
f 957 1100 973 964
f 965 980 1101 1099
f 1100 984 985 976
f 977 992 996 1101
f 981 1004 1005 988
f 989 1012 1013 996
f 1001 1020 1021 1008
f 1009 1028 1025 1016
f 1017 1032 1029 1024
f 263 1102 1103 266
f 1102 777 1104 292
f 295 1105 774 1103
f 485 940 937 1106
f 1107 1108 969 488
f 1108 1000 997 972
f 1035 1040 1109 1034
f 509 1109 1037 512
f 247 264 265 250
f 1039 1110 1041 1038
f 1110 1050 1111 1044
f 1047 1056 1053 1111
f 1055 1060 1057 1054
f 1059 1064 1061 1058
f 1063 1072 1069 1062
g turret
usemtl turret
f 370 1112 404 373
f 346 1113 1114 349
f 350 1115 1116 353
f 354 1117 1118 357
f 338 1119 1120 341
f 342 1121 1122 345
f 314 339 340 317
f 318 1123 1124 321
f 322 1125 344 325
f 271 1126 316 274
f 275 319 320 278
f 279 323 324 282
f 392 633 631 394
g track
usemtl track
f 127 1127 1128 179
g hull_belly
usemtl hull_belly
f 1075 1129 1127 127
f 151 1130 196 150
f 141 215 212 1076
g track
usemtl track
f 182 1131 200 144
f 184 191 1132 1128
g hull_belly
usemtl hull_belly
f 1129 223 220 187
g track
usemtl track
f 188 195 1133 1132
f 192 207 1134 1133
g hull_belly
usemtl hull_belly
f 1130 211 208 199
g track
usemtl track
f 1131 238 1135 203
f 204 219 216 1134
f 581 1135 235 584
f 680 480 1136 1077
f 684 875 865 687
f 477 850 872 1136
f 742 484 481 745
f 758 1078 850 761
g hull
usemtl hull
f 893 898 899 896
f 885 894 895 888
f 881 886 887 884
f 877 882 883 880
f 814 878 879 817
f 810 815 816 813
f 802 811 812 805
f 794 803 804 797
f 790 795 796 793
f 585 1137 1138 205
f 593 230 1139 590
f 218 1138 228 217
f 222 1139 1137 221
f 786 791 792 789
f 569 1140 589 572
f 573 591 592 576
f 577 583 594 580
f 186 586 1141 185
f 190 1141 1142 189
f 194 1142 587 193
f 198 588 1140 197
f 202 582 583 201
f 229 1143 239 225
f 233 242 1144 232
f 237 1144 1143 236
f 245 596 597 244
f 285 600 601 284
f 770 787 788 773
f 241 1145 1146 240
f 326 1147 682 1146
f 1145 658 661 329
f 1147 1082 772 681
f 479 743 744 478
f 483 759 760 482
f 3 25 24 2
f 7 28 26 6
f 330 785 780 327
f 328 662 1148 333
f 663 685 1149 1148
f 686 779 782 1149
f 97 578 1150 100
f 557 570 571 560
f 561 574 575 564
f 565 1150 579 568
f 334 1083 784 331
f 332 783 1084 337
f 27 48 45 17
f 15 52 49 14
f 546 558 559 549
f 550 562 563 552
f 553 566 567 556
f 47 64 61 46
f 51 68 65 50
f 55 71 69 54
f 533 547 548 536
f 537 551 544 540
f 99 554 555 92
f 63 534 535 62
f 67 538 539 66
f 70 1151 1152 58
f 74 1152 542 73
f 78 541 1151 77
f 1105 1107 1106 1104
f 766 775 776 769
f 487 492 489 486
f 251 1153 768 248
f 249 767 1154 254
f 762 1154 1153 765
f 491 1155 1156 490
f 493 938 939 1156
f 1155 970 971 496
f 255 1157 764 252
f 253 763 1158 258
f 746 1158 1157 749
f 495 1159 1160 494
f 907 914 1161 1160
f 1159 1162 919 906
f 911 933 1163 1161
f 915 504 501 910
f 1162 1164 936 918
f 497 958 959 1163
f 1164 998 999 508
f 259 753 748 256
f 257 747 750 262
f 499 942 1165 498
f 503 1166 513 502
f 507 1167 947 506
f 943 950 1168 1165
f 1167 1169 955 946
f 951 962 1170 1168
f 1169 1171 967 954
f 963 974 1172 1170
f 1171 1173 979 966
f 975 986 983 1172
f 1173 994 991 978
f 987 1006 1003 982
f 995 1014 1011 990
f 1007 1022 1019 1002
f 1015 1026 1027 1010
f 1023 1030 1031 1018
f 511 516 1166 510
f 261 1174 1175 260
f 267 757 752 1175
f 1174 751 754 270
f 515 520 517 514
g turret
usemtl turret
f 269 1176 1177 268
f 297 1178 756 1177
f 1176 755 1179 300
f 735 1179 1178 738
f 519 1045 1180 518
f 1046 1181 1052 1180
f 1181 524 521 1051
f 299 736 739 303
f 603 398 395 606
f 523 528 525 522
f 302 604 605 301
f 397 740 1182 401
f 692 1182 741 695
f 527 532 529 526
f 1065 1073 1074 1068
f 400 405 1183 399
f 402 698 694 1183
f 531 1066 1067 530
f 1112 701 697 403
f 664 409 406 667
f 688 413 410 691
f 1113 671 666 371
f 1115 675 668 1114
f 1117 679 672 1116
f 372 665 676 1118
f 408 689 690 407
f 412 1184 1185 411
f 414 705 700 1185
f 418 709 702 417
f 422 713 706 421
f 1184 699 710 425
f 1119 1186 670 347
f 348 669 1187 1120
f 352 673 674 351
f 1121 1188 678 355
f 356 677 1189 1122
f 649 1187 1186 652
f 653 1189 1188 656
f 426 717 704 415
f 416 703 714 429
f 420 707 708 419
f 430 721 712 423
f 424 711 718 433
f 1123 1190 655 343
f 1125 1191 1192 1124
f 634 650 651 637
f 638 1192 1190 641
f 642 654 1191 645
f 434 725 720 431
f 438 728 722 437
f 1126 648 636 315
f 428 444 1193 427
f 436 448 445 435
f 440 452 449 439
f 441 731 716 1193
f 607 646 647 610
f 611 639 640 614
f 615 643 644 618
f 443 456 453 442
f 447 460 457 446
f 451 464 461 450
f 273 1194 358 272
f 277 365 362 276
f 281 369 366 280
f 1194 608 619 361
f 455 1195 465 454
f 459 472 469 458
f 463 476 473 462
f 1195 729 732 468
f 360 377 374 359
f 364 1196 378 363
f 368 385 382 367
f 1196 612 622 381
f 467 733 734 466
f 471 723 724 470
f 475 726 727 474
f 389 630 625 388
f 384 616 617 383
f 391 628 629 390
f 393 632 621 375
f 387 626 627 386
g hull
usemtl hull
f 243 598 597 244
f 283 602 601 284
f 224 246 245 225
f 239 1197 682 240
f 595 286 285 596
f 599 683 1197 600
g track
usemtl track
f 178 873 872 179
g hull
usemtl hull
f 216 227 228 217
g track
usemtl track
f 156 851 871 180
g hull
usemtl hull
f 477 745 744 478
f 481 761 760 482
f 204 219 218 205
f 247 769 768 248
f 263 777 776 264
f 680 480 479 681
f 742 484 483 743
f 758 1198 772 759
f 1198 1199 788 773
f 1199 1200 792 789
f 1200 1201 796 793
f 485 940 1202 486
f 1201 1203 804 797
f 489 1202 939 490
f 1203 1204 812 805
f 1204 1205 816 813
f 1205 1078 879 817
f 1078 1206 883 880
f 1206 1207 887 884
f 1207 892 895 888
f 891 900 899 896
f 192 207 587 193
f 251 765 764 252
f 291 960 1208 292
f 493 1209 959 494
f 937 1208 1209 938
f 255 749 748 256
f 287 924 923 293
f 326 781 780 327
f 497 1210 983 498
f 957 984 1210 958
g track
usemtl track
f 125 821 849 158
g hull
usemtl hull
f 188 195 194 189
f 308 904 903 309
f 330 785 784 331
f 981 1004 1003 982
f 259 753 752 260
f 304 809 808 310
f 334 801 800 335
g turret
usemtl turret
f 267 757 756 268
g hull
usemtl hull
f 1001 1020 1019 1002
g turret
usemtl turret
f 297 1211 605 301
f 1211 738 737 606
f 395 1212 694 399
f 1212 737 741 695
g hull
usemtl hull
f 184 191 190 185
g turret
usemtl turret
f 402 698 697 403
g hull
usemtl hull
f 1017 1032 1031 1018
g turret
usemtl turret
f 370 667 666 371
f 406 691 690 407
f 410 701 700 411
f 346 671 670 347
f 414 705 704 415
f 314 637 636 315
f 338 652 651 339
f 426 717 716 427
g hull
usemtl hull
f 9 1213 559 17
f 29 1214 1215 30
f 37 1216 1214 38
f 45 549 548 46
f 61 536 535 62
f 80 1217 1216 81
f 101 1218 1217 102
f 113 223 1218 114
f 1213 1219 571 560
f 1219 1220 589 572
f 1220 1215 222 590
f 1 19 24 2
g turret
usemtl turret
f 271 1221 609 272
f 358 609 1222 359
f 374 1222 621 375
f 1221 648 647 610
f 441 731 1223 442
f 453 1223 730 454
f 465 730 734 466
g hull_belly
usemtl hull_belly
f 162 857 867 175
g hull
usemtl hull
f 5 23 26 6
g hull_belly
usemtl hull_belly
f 149 845 855 164
g hull
usemtl hull
f 909 928 501 910
f 927 1036 1224 502
f 1035 1040 1225 1224
f 513 1226 1049 514
g turret
usemtl turret
f 517 1049 1052 518
g hull
usemtl hull
f 1039 1050 1226 1225
g turret
usemtl turret
f 350 675 674 351
f 418 709 708 419
g hull
usemtl hull
f 1047 1056 1227 1048
g turret
usemtl turret
f 1048 1071 1228 1051
g hull
usemtl hull
f 1055 1060 1229 1227
g turret
usemtl turret
f 521 1228 1230 522
g hull
usemtl hull
f 1059 1064 1231 1229
g turret
usemtl turret
f 525 1230 1074 526
g hull
usemtl hull
f 1063 1072 1071 1231
g turret
usemtl turret
f 529 1068 1067 530
g hull
usemtl hull
f 13 1232 1233 14
f 33 1234 1232 34
f 41 1235 1234 42
f 49 1233 544 50
f 65 540 539 66
f 84 1236 1235 85
f 105 545 1236 106
f 117 151 563 552
f 151 1237 575 564
f 1237 211 592 576
g turret
usemtl turret
f 354 679 678 355
f 422 713 712 423
f 342 656 655 343
f 430 721 720 431
f 275 1238 1239 276
f 318 641 1240 319
f 362 1239 613 363
f 378 613 627 386
f 1238 1240 640 614
f 434 725 1241 435
f 445 1241 1242 446
f 457 1242 1243 458
f 469 1243 724 470
f 389 630 629 390
g hull
usemtl hull
f 905 920 919 906
f 917 932 936 918
f 935 948 947 506
g hull_belly
usemtl hull_belly
f 168 863 869 177
g hull
usemtl hull
f 945 956 955 946
g hull_belly
usemtl hull_belly
f 153 848 861 170
g hull
usemtl hull
f 953 968 967 954
f 965 980 979 966
g turret
usemtl turret
f 279 1244 1245 280
f 322 645 1246 323
f 366 1245 1247 367
f 382 1247 617 383
f 1244 1246 644 618
f 438 728 1248 439
f 449 1248 1249 450
f 461 1249 1250 462
f 473 1250 727 474
g hull
usemtl hull
f 977 992 991 978
f 989 1012 1011 990
f 88 1251 555 92
f 109 1252 1253 110
f 121 215 1252 122
f 1251 1254 567 556
g hull_belly
usemtl hull_belly
f 140 835 846 155
g hull
usemtl hull
f 1254 1255 579 568
f 1255 1253 594 580
f 72 94 542 73
f 1009 1028 1027 1010
f 57 75 74 58
g hull_belly
usemtl hull_belly
f 131 827 833 142
g hull
usemtl hull
f 53 60 69 54
f 231 238 237 232
f 1023 1030 1029 1024
g hull_belly
usemtl hull_belly
f 137 832 822 130
f 146 841 830 139
g hull
usemtl hull
f 186 586 1256 187
f 585 221 220 1256
f 1007 1022 1021 1008
f 987 1006 1005 988
f 975 986 985 976
g hull_belly
usemtl hull_belly
f 159 854 839 148
g hull
usemtl hull
f 963 974 973 964
f 3 25 20 4
g hull_belly
usemtl hull_belly
f 174 868 852 161
g hull
usemtl hull
f 951 962 961 952
f 943 950 949 944
f 499 942 941 934
f 911 933 921 912
g turret
usemtl turret
f 360 1257 619 361
f 392 633 1257 377
f 467 733 732 468
f 393 632 631 394
f 273 608 1258 274
f 316 635 634 317
f 340 650 649 341
f 607 646 635 1258
f 428 715 714 429
f 443 1259 715 444
f 455 729 1259 456
f 348 669 668 349
f 416 703 702 417
g hull
usemtl hull
f 7 1260 1261 8
f 11 1262 1263 12
f 27 558 1264 28
f 31 1263 1265 32
f 39 1265 1266 40
f 47 547 546 48
f 63 534 533 64
f 82 1266 1267 83
f 103 1267 1268 104
f 115 1268 196 116
f 557 570 1260 1264
f 569 197 1262 1261
f 198 588 208 199
g turret
usemtl turret
f 352 673 672 353
f 420 707 706 421
g hull_belly
usemtl hull_belly
f 165 860 842 152
g hull
usemtl hull
f 915 504 925 916
f 503 1269 1033 926
f 1269 510 509 1034
f 1043 1270 1053 1044
g turret
usemtl turret
f 1046 1271 1070 1043
g hull
usemtl hull
f 1270 1272 1057 1054
g turret
usemtl turret
f 523 1273 1271 524
g hull
usemtl hull
f 1272 1274 1061 1058
g turret
usemtl turret
f 527 1073 1273 528
g hull
usemtl hull
f 1274 1070 1069 1062
g turret
usemtl turret
f 531 1066 1065 532
g hull
usemtl hull
f 907 914 913 908
f 511 1275 1037 512
f 515 1042 1276 516
g turret
usemtl turret
f 519 1045 1042 520
g hull
usemtl hull
f 1275 1276 1041 1038
g turret
usemtl turret
f 387 626 625 388
g hull_belly
usemtl hull_belly
f 176 870 858 167
g turret
usemtl turret
f 391 628 622 381
f 277 1277 1278 278
f 320 1279 638 321
f 364 612 1277 365
f 611 639 1279 1278
f 436 1280 722 437
f 447 1281 1280 448
f 459 1282 1281 460
f 471 723 1282 472
g hull
usemtl hull
f 15 562 1283 16
f 35 1284 1285 36
f 43 1285 1286 44
f 51 551 550 52
f 67 538 537 68
f 86 1286 1287 87
f 107 1287 1288 108
f 119 1288 212 120
f 561 574 1289 1283
f 573 591 1284 1289
g turret
usemtl turret
f 281 1290 1291 282
f 324 1292 642 325
f 344 654 653 345
f 368 1293 1290 369
f 384 616 1293 385
f 615 643 1292 1291
f 440 1294 718 433
f 451 1295 1294 452
f 463 1296 1295 464
f 475 726 1296 476
f 356 677 676 357
f 424 711 710 425
g hull
usemtl hull
f 55 1297 76 56
f 70 77 1297 71
f 78 541 95 79
g turret
usemtl turret
f 372 665 664 373
f 400 693 692 401
f 404 696 693 405
f 408 689 688 409
f 412 699 696 413
f 302 604 603 303
f 397 740 739 398
f 299 736 735 300
g hull
usemtl hull
f 99 554 1298 100
f 553 566 565 1298
g track
usemtl track
f 143 838 828 136
g turret
usemtl turret
f 269 755 754 270
g hull
usemtl hull
f 311 807 806 307
f 336 799 798 337
f 1015 1026 1025 1016
f 261 751 750 262
f 312 902 901 313
f 97 578 1299 91
f 111 1300 1301 112
f 123 1301 200 124
g track
usemtl track
f 171 866 836 145
g hull
usemtl hull
f 577 201 1300 1299
f 593 1302 235 584
f 229 236 1302 230
f 294 930 929 290
f 995 1014 1013 996
f 202 582 581 203
f 257 747 746 258
f 295 1000 993 296
f 332 783 782 333
f 507 994 999 508
f 253 763 762 254
f 495 998 1303 496
f 971 1303 997 972
f 249 767 766 250
f 265 775 774 266
f 487 1304 969 488
f 491 970 1304 492
g track
usemtl track
f 181 876 864 173
g hull
usemtl hull
f 686 1305 1306 687
f 770 787 1307 1306
f 1305 779 778 771
f 786 791 1308 1307
f 790 795 1309 1308
f 794 803 1310 1309
f 802 811 1311 1310
f 810 815 1312 1311
f 814 878 865 1312
f 877 882 1313 865
f 881 886 1314 1313
f 885 894 889 1314
f 893 898 897 890
g track
usemtl track
f 182 875 874 183
g hull
usemtl hull
f 663 685 684 660
f 328 662 661 329
f 233 1315 657 234
f 241 658 1315 242
